<?xml version="1.0" encoding="UTF-8"?>
<svg id="Layer_1" data-name="Layer 1" xmlns="http://www.w3.org/2000/svg" viewBox="0 0 64 64">
  <defs>
    <style>
      .cls-1 {
        fill: none;
        stroke: #000;
        stroke-miterlimit: 10;
        stroke-width: 4px;
      }

      .cls-2, .cls-3 {
        stroke-width: 0px;
      }

      .cls-3 {
        fill: #fff;
      }
    </style>
  </defs>
  <g>
    <circle class="cls-3" cx="32" cy="32" r="30"/>
    <path class="cls-2" d="m32,4c15.44,0,28,12.56,28,28s-12.56,28-28,28S4,47.44,4,32,16.56,4,32,4m0-4C14.33,0,0,14.33,0,32s14.33,32,32,32,32-14.33,32-32S49.67,0,32,0h0Z"/>
  </g>
  <line class="cls-1" x1="32" y1="32" x2="32" y2="8"/>
  <g>
    <circle class="cls-3" cx="32" cy="8" r="2"/>
    <path class="cls-2" d="m32,6c-1.1,0-2,.9-2,2s.9,2,2,2,2-.9,2-2-.9-2-2-2h0Z"/>
  </g>
  <g>
    <circle class="cls-3" cx="32" cy="32" r="2"/>
    <path class="cls-2" d="m32,30c-1.1,0-2,.9-2,2s.9,2,2,2,2-.9,2-2-.9-2-2-2h0Z"/>
  </g>
  <g>
    <rect class="cls-3" x="36.91" y="28.76" width="4" height="18" transform="translate(-15.01 43.48) rotate(-50.19)"/>
    <polygon class="cls-2" points="33.28 30.46 30.72 33.54 44.55 45.06 47.11 41.99 33.28 30.46 33.28 30.46"/>
  </g>
  <g>
    <rect class="cls-3" x="36.91" y="28.76" width="4" height="18" transform="translate(-15.01 43.48) rotate(-50.19)"/>
    <polygon class="cls-2" points="33.28 30.46 30.72 33.54 44.55 45.06 47.11 41.99 33.28 30.46 33.28 30.46"/>
  </g>
  <g>
    <circle class="cls-3" cx="45.83" cy="43.52" r="2"/>
    <path class="cls-2" d="m45.83,41.52c-.57,0-1.14.25-1.54.72-.71.85-.59,2.11.26,2.82.37.31.83.46,1.28.46.57,0,1.14-.25,1.54-.72.71-.85.59-2.11-.26-2.82-.37-.31-.83-.46-1.28-.46h0Z"/>
  </g>
</svg>