# Blender 4.4.3
# www.blender.org
mtllib uvtesthighlight.mtl
o Cube
v -0.750000 0.000000 0.750000
v -0.750000 0.100000 0.750000
v -0.750000 0.000000 0.650000
v -0.750000 0.100000 0.650000
v -0.650000 0.000000 0.750000
v -0.650000 0.100000 0.750000
v -0.650000 0.000000 0.650000
v -0.650000 0.100000 0.650000
v 0.650000 0.100000 0.650000
v 0.650000 0.000000 0.650000
v 0.650000 0.000000 0.750000
v 0.650000 0.100000 0.750000
v -0.750000 0.100000 -0.650000
v -0.750000 0.000000 -0.650000
v -0.650000 0.000000 -0.650000
v -0.650000 0.100000 -0.650000
v -0.750000 0.100000 -0.750000
v -0.750000 0.000000 -0.750000
v -0.650000 0.000000 -0.750000
v -0.650000 0.100000 -0.750000
v 0.750000 0.100000 0.650000
v 0.750000 0.000000 0.650000
v 0.750000 0.000000 0.750000
v 0.750000 0.100000 0.750000
v 0.650000 0.100000 -0.650000
v 0.650000 0.000000 -0.650000
v 0.750000 0.100000 -0.650000
v 0.750000 0.000000 -0.650000
v 0.650000 0.100000 -0.750000
v 0.650000 0.000000 -0.750000
v 0.750000 0.100000 -0.750000
v 0.750000 0.000000 -0.750000
v 0.650000 1.900000 0.650000
v 0.650000 1.900000 0.750000
v 0.750000 1.900000 0.650000
v 0.750000 1.900000 0.750000
v -0.750000 1.900000 0.750000
v -0.750000 1.900000 0.650000
v -0.650000 1.900000 0.650000
v -0.650000 1.900000 0.750000
v 0.750000 1.900000 -0.650000
v 0.650000 1.900000 -0.650000
v 0.750000 1.900000 -0.750000
v 0.650000 1.900000 -0.750000
v -0.750000 1.900000 -0.650000
v -0.650000 1.900000 -0.650000
v -0.750000 1.900000 -0.750000
v -0.650000 1.900000 -0.750000
v 0.750000 2.000000 -0.650000
v 0.650000 2.000000 -0.650000
v 0.750000 2.000000 -0.750000
v 0.650000 2.000000 -0.750000
v -0.750000 2.000000 -0.650000
v -0.650000 2.000000 -0.650000
v -0.750000 2.000000 -0.750000
v -0.650000 2.000000 -0.750000
v 0.650000 2.000000 0.650000
v 0.650000 2.000000 0.750000
v 0.750000 2.000000 0.650000
v 0.750000 2.000000 0.750000
v -0.750000 2.000000 0.750000
v -0.750000 2.000000 0.650000
v -0.650000 2.000000 0.650000
v -0.650000 2.000000 0.750000
vn -1.0000 -0.0000 -0.0000
vn -0.0000 1.0000 -0.0000
vn -0.0000 -0.0000 1.0000
vn -0.0000 -1.0000 -0.0000
vn 1.0000 -0.0000 -0.0000
vn -0.0000 -0.0000 -1.0000
vt 0.375000 0.000000
vt 0.625000 0.000000
vt 0.625000 0.250000
vt 0.375000 0.250000
vt 0.875000 0.500000
vt 0.625000 0.500000
vt 0.625000 0.750000
vt 0.375000 0.750000
vt 0.625000 1.000000
vt 0.375000 1.000000
vt 0.125000 0.500000
vt 0.375000 0.500000
vt 0.125000 0.750000
vt 0.875000 0.750000
s 0
f 1/1/1 2/2/1 4/3/1 3/4/1
f 4/5/2 8/6/2 16/6/2 13/5/2
f 8/6/2 6/7/2 12/7/2 9/6/2
f 5/8/3 6/7/3 2/9/3 1/10/3
f 3/11/4 7/12/4 5/8/4 1/13/4
f 6/7/5 8/6/5 39/6/5 40/7/5
f 11/8/4 10/12/4 22/12/4 23/8/4
f 7/12/6 8/6/6 9/6/6 10/12/6
f 6/7/3 5/8/3 11/8/3 12/7/3
f 5/8/4 7/12/4 10/12/4 11/8/4
f 13/5/3 16/6/3 46/6/3 45/5/3
f 3/4/1 4/3/1 13/3/1 14/4/1
f 8/6/5 7/12/5 15/12/5 16/6/5
f 7/12/4 3/11/4 14/11/4 15/12/4
f 18/4/6 17/3/6 20/6/6 19/12/6
f 14/4/1 13/3/1 17/3/1 18/4/1
f 15/12/4 19/12/4 30/12/4 26/12/4
f 15/12/4 14/11/4 18/11/4 19/12/4
f 22/12/5 21/6/5 24/7/5 23/8/5
f 21/6/6 9/6/6 33/6/6 35/6/6
f 21/6/5 22/12/5 28/12/5 27/6/5
f 12/7/3 11/8/3 23/8/3 24/7/3
f 25/6/3 27/6/3 41/6/3 42/6/3
f 10/12/1 9/6/1 25/6/1 26/12/1
f 9/6/2 21/6/2 27/6/2 25/6/2
f 22/12/4 10/12/4 26/12/4 28/12/4
f 19/12/6 20/6/6 29/6/6 30/12/6
f 16/6/3 15/12/3 26/12/3 25/6/3
f 20/6/2 16/6/2 25/6/2 29/6/2
f 30/12/6 29/6/6 31/6/6 32/12/6
f 27/6/5 28/12/5 32/12/5 31/6/5
f 28/12/4 26/12/4 30/12/4 32/12/4
f 26/12/1 25/6/1 29/6/1 30/12/1
f 34/7/3 36/7/3 60/7/3 58/7/3
f 12/7/3 24/7/3 36/7/3 34/7/3
f 24/7/5 21/6/5 35/6/5 36/7/5
f 9/6/1 12/7/1 34/7/1 33/6/1
f 40/7/5 39/6/5 63/6/5 64/7/5
f 4/3/1 2/2/1 37/2/1 38/3/1
f 2/9/3 6/7/3 40/7/3 37/9/3
f 8/6/6 4/5/6 38/5/6 39/6/6
f 41/6/5 43/6/5 51/6/5 49/6/5
f 29/6/1 25/6/1 42/6/1 44/6/1
f 27/6/5 31/6/5 43/6/5 41/6/5
f 31/6/6 29/6/6 44/6/6 43/6/6
f 46/6/4 48/6/4 44/6/4 42/6/4
f 17/3/1 13/3/1 45/3/1 47/3/1
f 16/6/5 20/6/5 48/6/5 46/6/5
f 20/6/6 17/3/6 47/3/6 48/6/6
f 50/6/2 49/6/2 51/6/2 52/6/2
f 43/6/6 44/6/6 52/6/6 51/6/6
f 42/6/3 41/6/3 49/6/3 50/6/3
f 44/6/1 42/6/1 50/6/1 52/6/1
f 53/5/2 54/6/2 56/6/2 55/5/2
f 45/5/3 46/6/3 54/6/3 53/5/3
f 47/3/1 45/3/1 53/3/1 55/3/1
f 48/6/6 47/3/6 55/3/6 56/6/6
f 57/6/2 58/7/2 60/7/2 59/6/2
f 57/6/6 33/6/6 39/6/6 63/6/6
f 35/6/4 33/6/4 42/6/4 41/6/4
f 36/7/5 35/6/5 59/6/5 60/7/5
f 63/6/2 62/5/2 61/14/2 64/7/2
f 38/3/1 37/2/1 61/2/1 62/3/1
f 37/9/3 40/7/3 64/7/3 61/9/3
f 39/6/4 38/5/4 45/5/4 46/6/4
f 58/7/2 57/6/2 63/6/2 64/7/2
f 33/6/4 34/7/4 40/7/4 39/6/4
f 34/7/3 58/7/3 64/7/3 40/7/3
f 63/6/5 39/6/5 46/6/5 54/6/5
f 38/3/1 62/3/1 53/3/1 45/3/1
f 62/5/2 63/6/2 54/6/2 53/5/2
f 48/6/6 56/6/6 52/6/6 44/6/6
f 56/6/2 54/6/2 50/6/2 52/6/2
f 54/6/3 46/6/3 42/6/3 50/6/3
f 33/6/1 57/6/1 50/6/1 42/6/1
f 59/6/5 35/6/5 41/6/5 49/6/5
f 57/6/2 59/6/2 49/6/2 50/6/2
